<?xml version="1.0" encoding="UTF-8"?>
<!--
  Hazbot avatar badge for the coachmarks hazbot theme.
  Point-in-time composite of the designer-exported Zeplin assets
    "Hazbot Coach Mark - Back"  (35733B19-198B-4C0D-A826-5381BE941CD7)  body/face
    "Hazbot Coach Mark - Eyes"  (C9EE2692-D7AE-459D-9705-3343EBCBAE51)  open eyes (NOT Blinks)
  from project 5fe47ae231d1f6a428c53450, screen 69b2baa489a2e2f3308238b8, as of WM-17.
  These are the coach-mark-specific variants (rounded bottom), distinct from the bottom-bar
  "Hazbot Button" art. The canonical face lives in Zeplin/wildfire; this is a manual copy with
  no build-time link, so re-export both groups here if the design changes.
-->
<svg width="52px" height="52px" viewBox="0 0 52 52" version="1.1" xmlns="http://www.w3.org/2000/svg" xmlns:xlink="http://www.w3.org/1999/xlink" role="img" aria-hidden="true">
  <title>Hazbot</title>
  <g id="Hazbot-Coach-Mark-Back" stroke-width="1" fill-rule="evenodd" transform="translate(0.0003, 0.0001)">
            <path d="M25.9996861,20.9998826 C34.2839574,20.9998826 40.9996861,27.7156114 40.9996861,35.9998826 C40.9996861,44.2841539 34.2839574,50.9998826 25.9996861,50.9998826 C17.7154149,50.9998826 10.9996861,44.2841539 10.9996861,35.9998826 C10.9996861,27.7156114 17.7154149,20.9998826 25.9996861,20.9998826 Z" id="Path" fill="#797979" fill-rule="nonzero"></path>
            <path d="M25.9996861,21.9998826 C18.2676996,21.9998826 11.9996861,28.2678961 11.9996861,35.9998826 C11.9996861,43.7318691 18.2676996,49.9998826 25.9996861,49.9998826 C33.7316726,49.9998826 39.9996861,43.7318691 39.9996861,35.9998826 C39.9996861,28.2678961 33.7316726,21.9998826 25.9996861,21.9998826 Z" id="Path" fill="#C1DAFF" fill-rule="nonzero"></path>
            <path d="M36.1789588,42.8757541 C36.7317947,43.0198029 37.2820303,43.2346028 37.8183235,43.5073176 C37.5234901,43.9709074 37.2028297,44.4146944 36.8579171,44.8379336 C36.6583694,44.1231465 36.4275272,43.4572724 36.1789588,42.8757541 Z" id="Fill-1" fill="#000000"></path>
            <path d="M36.5370032,43.808019 C36.8171783,43.9084473 37.0962119,44.0283423 37.3721204,44.1654813 C37.2073097,44.3958102 37.0358401,44.6196058 36.8579171,44.8379336 C36.7584229,44.4799617 36.6505604,44.1362617 36.5370032,43.808019 Z" id="Fill-5" fill="#FFABAB"></path>
            <path d="M15.8406579,42.870026 C15.5742234,43.470863 15.3368173,44.1432137 15.1366229,44.8329356 C14.794261,44.4115749 14.4744866,43.9688015 14.1809556,43.5076908 C14.7242873,43.230918 15.2812777,43.0141431 15.8406579,42.870026 Z" id="Fill-7" fill="#000000"></path>
            <path d="M15.4703727,43.8045665 C15.3584266,44.118434 15.2527579,44.4403226 15.155924,44.7674423 L15.1381756,44.8339077 C14.9614248,44.6168549 14.7910503,44.394403 14.6273374,44.1668376 C14.9057053,44.02644 15.1874638,43.9055731 15.4703727,43.8045665 Z" id="Fill-11" fill="#FFABAB"></path>
            <path d="M34.9598974,40.932208 C35.6518495,41.5242475 36.3526085,43.0286336 36.8598991,44.8346282 C34.2924506,47.9871824 30.3811141,49.9998826 25.9996861,49.9998826 C21.6159259,49.9998826 17.7027577,47.9850391 15.1357168,44.8308875 C15.6113128,43.1759795 16.3011647,41.6215278 17.1071133,40.932208 C19.0256285,39.2906809 33.0405976,39.2914655 34.9598974,40.932208 Z" id="Fill-13" fill="#000000"></path>
            <path d="M25.6985992,40.4698559 L26.3681649,40.4698559 L27.3680804,40.4836024 C30.6807298,40.5569202 33.7213485,40.9052154 34.4497057,41.529027 C35.0371008,42.0309735 35.7469452,43.6069375 36.2376592,45.5465638 C33.6832267,48.2871296 30.0414739,49.9998826 25.9996861,49.9998826 C21.9539368,49.9998826 18.309007,48.2837704 15.7531215,45.5397707 C16.2383955,43.671608 16.954152,42.0963776 17.6169911,41.529027 C18.4189457,40.8428342 22.0179974,40.4900163 25.6985992,40.4698559 L25.6985992,40.4698559 Z" id="Fill-15" fill="#FF0000"></path>
            <path d="M16.7890086,42.7117583 C17.0903214,42.8004259 17.3994809,42.8836008 17.7188411,42.961283 C17.254509,43.8267029 16.7959488,44.9743858 16.4259546,46.2128018 C16.1942368,45.9975447 15.9702535,45.7728382 15.75406,45.5407783 C16.0390845,44.4491376 16.4030942,43.4614577 16.7890086,42.7117583 Z" id="Fill-17" fill="#FFABAB"></path>
            <path d="M35.2392395,42.7024992 C35.6007628,43.4418124 35.9551204,44.4344559 36.2372128,45.5470633 C36.0208001,45.7813961 35.7959699,46.0065559 35.5637297,46.2238948 C35.1981183,44.975537 34.7512984,43.8194996 34.3054836,42.9543779 C34.6256285,42.875911 34.9363573,42.7919514 35.2392395,42.7024992 Z" id="Fill-19" fill="#FFABAB"></path>
            <path d="M25.9996077,43.7956213 C29.713445,43.7956213 32.7681606,43.4323196 35.2390825,42.7025777 C34.9715105,42.1556635 34.6992304,41.7421431 34.4497057,41.5287132 C33.6242342,40.8225113 29.8287913,40.4686256 26.0333484,40.4686256 C22.2386902,40.4686256 18.4432473,40.8225113 17.6169911,41.5287132 C17.3431417,41.7633291 17.0606609,42.1831269 16.7883809,42.7119937 C19.2545948,43.4354583 22.300679,43.7956213 25.9996077,43.7956213" id="Fill-21" fill="#AD0000"></path>
            <path d="M28.3219919,44.5616149 C28.6515527,44.5427829 28.9426649,44.7695522 29.1678648,45.2348607 C29.5206114,45.9650583 29.8114859,47.6101683 29.8994826,49.1569343 L29.9130628,49.4455994 C28.671149,49.8064396 27.3580081,49.9998826 25.9996861,49.9998826 C24.6395311,49.9998826 23.3246791,49.8059171 22.0812819,49.4441376 C22.1335868,47.8515532 22.4335699,46.0898728 22.820679,45.2882182 C23.062357,44.7860302 23.3644545,44.5365055 23.7277561,44.5616149 C24.912606,44.6228191 27.1449887,44.6228191 28.3219919,44.5616149 Z" id="Fill-23" fill="#000000"></path>
            <path d="M28.2989226,45.3322381 C28.4009295,45.3973657 28.7155817,45.9183857 28.9501977,47.5277414 C29.0597951,48.2792275 29.1160484,49.0075205 29.1327603,49.6480819 C28.1251998,49.8782794 27.0766439,49.9998826 25.9996861,49.9998826 C24.9220151,49.9998826 23.8727837,49.8781183 22.8649993,49.647597 C22.8789485,48.8445625 22.9573069,47.930886 23.1138313,47.0804802 C23.3500166,45.7912694 23.6364207,45.3863803 23.6866395,45.3447928 C24.8926754,45.4091357 27.1650762,45.4091357 28.2989226,45.3322381 Z" id="Fill-25" fill="#D6E8E8"></path>
            <path d="M27.4371993,47.1830364 L24.5621729,47.1830364 C24.3456043,47.1830364 24.1698385,47.0072706 24.1698385,46.790702 C24.1698385,46.5741334 24.3456043,46.3983676 24.5621729,46.3983676 L27.4371993,46.3983676 C27.6537679,46.3983676 27.8295337,46.5741334 27.8295337,46.790702 C27.8295337,47.0072706 27.6537679,47.1830364 27.4371993,47.1830364" id="Fill-27" fill="#000000"></path>
            <path d="M25.9421699,49.2427919 C25.4054565,49.2427919 24.8883597,49.2200365 24.3940184,49.1745258 C24.1782345,49.154909 24.0197314,48.9642345 24.0393481,48.7476659 C24.0597495,48.5326667 24.250424,48.382795 24.4662079,48.3929956 C25.4078105,48.4800939 26.4420039,48.4777399 27.5381862,48.3929956 C27.7578935,48.3773023 27.9422906,48.53659 27.960338,48.7531586 C27.9776007,48.9681579 27.815959,49.1580477 27.600175,49.1745258 C27.0305055,49.2200365 26.477314,49.2427919 25.9421699,49.2427919" id="Fill-29" fill="#000000"></path>
            <path d="M33.3754942,46.2512422 C33.9488476,46.2512422 34.4704992,46.4757081 34.8572336,46.8414244 C33.7891383,47.7159094 32.5887971,48.4352311 31.2910945,48.9653886 C31.2429268,48.7880248 31.217655,48.6014636 31.217655,48.4090814 C31.217655,47.2187388 32.1851517,46.2512422 33.3754942,46.2512422 Z" id="Fill-33" fill="#000000"></path>
            <path d="M33.3754942,47.035911 C33.6952552,47.035911 33.9898289,47.1457559 34.2234651,47.3296955 C33.5351094,47.8316185 32.7989242,48.271129 32.0233246,48.6413636 C32.0090863,48.5662098 32.0023238,48.4884209 32.0023238,48.4090814 C32.0023238,47.651876 32.6182888,47.035911 33.3754942,47.035911 Z" id="Fill-35" fill="#EDE600"></path>
            <path d="M18.6237996,46.2512422 C19.8141421,46.2512422 20.7816388,47.2187388 20.7816388,48.4090814 C20.7816388,48.6013619 20.7563937,48.7878277 20.7090422,48.9653402 C19.4099418,48.4348644 18.2098572,47.7156286 17.1413576,46.8415573 C17.5287946,46.4757081 18.0504462,46.2512422 18.6237996,46.2512422 Z" id="Fill-39" fill="#000000"></path>
            <path d="M18.6237996,47.035911 C19.381005,47.035911 19.99697,47.651876 19.99697,48.4090814 C19.99697,48.4880729 19.9902667,48.5655274 19.977399,48.6409059 C19.2004481,48.271129 18.4642629,47.8316185 17.7754987,47.330839 C18.0094649,47.1457559 18.3040386,47.035911 18.6237996,47.035911 Z" id="Fill-41" fill="#00EF00"></path>
            <path d="M45.2531824,33.9578365 L45.5270318,33.0994088 C45.5701886,32.9691538 45.588236,32.9157963 45.592944,32.8742089 C45.7145677,31.7435012 45.8605161,30.0023211 45.8605161,28.1308861 C45.8605161,26.2610204 45.7153523,24.5221944 45.5937287,23.3914867 C45.5890207,23.3483299 45.5701886,23.2934031 45.5482179,23.2298449 L45.2516131,22.3557239 L46.066884,22.6892081 C48.1721503,23.6778908 49.5319813,25.8145439 49.5319813,28.1308861 C49.5319813,30.4472283 48.1721503,32.5838814 46.0676686,33.5741334 L45.2531824,33.9578365 Z" id="Fill-45" fill="#000000"></path>
            <path d="M46.4228882,23.7900984 C46.5335265,24.9223755 46.6449494,26.4760196 46.6449494,28.1308861 C46.6449494,29.7865372 46.5335265,31.3393967 46.4228882,32.4732431 C47.8556934,31.5096699 48.7470771,29.8791281 48.7470771,28.1308861 C48.7470771,26.3834287 47.8556934,24.752887 46.4228882,23.7900984" id="Fill-47" fill="#2BB3EF"></path>
            <path d="M48.7145918,28.6490814 C48.2053418,29.5632205 47.4395051,30.0387298 46.6108948,29.6848441 C46.570092,30.7378697 46.4979025,31.7061509 46.4225743,32.473557 C47.7125698,31.6057133 48.5576581,30.1964482 48.7145918,28.6490814" id="Fill-49" fill="#007EC4"></path>
            <path d="M48.5841014,26.8456771 C48.2655259,25.6066851 47.4957658,24.5112875 46.4231236,23.7901769 C46.5141452,24.7255021 46.6028127,25.9535087 46.6318455,27.2835223 C47.3019526,27.810035 48.2066757,27.5981745 48.5841014,26.8456771" id="Fill-51" fill="#86DDFC"></path>
            <path d="M43.511767,34.8008061 C43.2198702,34.8008061 43.0849072,34.7756967 42.8973714,34.7411713 L42.2445269,34.6289637 L42.4061687,34.1856258 C42.869908,32.9183857 42.869908,31.3984823 42.869908,29.7891266 L42.869908,22.7271076 C42.869908,22.4595356 42.8612766,22.1825475 42.8416599,21.8953587 L42.8141965,21.4959623 L43.3030451,21.4708529 C43.8075871,21.4371121 44.3254685,21.4936083 44.8237332,21.5979692 C45.6594055,21.7729504 46.2824325,22.4603202 46.3734541,23.3077625 C46.4974317,24.4565176 46.6449494,26.2267304 46.6449494,28.1311215 C46.6449494,30.0378666 46.4974317,31.8088641 46.3726694,32.9584038 C46.2824325,33.8034921 45.6617595,34.4892926 44.8276566,34.6634891 C44.3968734,34.7545107 43.9543202,34.8008061 43.511767,34.8008061" id="Fill-53" fill="#000000"></path>
            <path d="M43.2884503,34.0076629 C43.3496544,34.0131556 43.41949,34.0162943 43.5120809,34.0162943 C43.8997073,34.0162943 44.2881183,33.9754915 44.665544,33.8954553 C45.1661627,33.7910943 45.5388803,33.3799279 45.5930225,32.8746012 C45.7146461,31.7431088 45.8605945,30.0027135 45.8605945,28.1312784 C45.8605945,26.2614127 45.7154308,24.521802 45.5938072,23.391879 C45.5388803,22.8834136 45.1645933,22.4714625 44.6624053,22.3655322 C44.3289211,22.2956967 43.9875902,22.2556786 43.6462592,22.2478319 C43.6517519,22.411043 43.6548906,22.5711155 43.6548906,22.7272645 L43.6548906,29.7892836 C43.6548906,31.2927089 43.6548906,32.7215908 43.2884503,34.0076629" id="Fill-55" fill="#FF0000"></path>
            <path d="M45.5930225,32.8743658 C45.6542266,32.3070503 45.7209235,31.5867243 45.7727116,30.7738075 C45.1936261,31.0162701 44.3359831,31.097091 43.6407666,31.1190617 C43.6180112,32.1352078 43.545037,33.1081971 43.2884503,34.0074275 C43.3496544,34.0129202 43.41949,34.0160589 43.5120809,34.0160589 C43.8997073,34.0160589 44.2881183,33.9752561 44.665544,33.8960046 C45.1661627,33.7908589 45.5388803,33.3804772 45.5930225,32.8743658" id="Fill-57" fill="#AD0000"></path>
            <path d="M45.5934148,23.3916436 C45.538488,22.8839629 45.1649857,22.4712271 44.6627976,22.3652968 C44.3293134,22.296246 43.9871978,22.2562279 43.6458669,22.2475965 C43.6521443,22.4108076 43.6544983,22.5708801 43.6544983,22.7270291 L43.6544983,24.2524253 C44.408565,24.2500712 45.1100589,24.279104 45.6883597,24.3701256 C45.656973,24.0099626 45.6248016,23.6804017 45.5934148,23.3916436" id="Fill-59" fill="#FFABAB"></path>
            <path d="M6.74344349,33.9026742 L5.9313113,33.573898 C3.82682964,32.583646 2.46699864,30.4477776 2.46699864,28.1314354 C2.46699864,25.8143085 3.82761431,23.67844 5.93209597,22.6889727 L6.75207485,22.3037003 L6.47273276,23.164482 C6.42957598,23.2931677 6.41074393,23.3480945 6.40603591,23.3912513 C6.28441225,24.5258823 6.13846386,26.2686317 6.13846386,28.1314354 C6.13846386,30.0020857 6.28441225,31.7432658 6.40603591,32.8739735 C6.41074393,32.9155609 6.42879131,32.9697031 6.4491927,33.0309072 L6.74344349,33.9026742 Z" id="Fill-61" fill="#000000"></path>
            <path d="M5.57640561,23.7900984 C4.14360042,24.752887 3.25221669,26.3834287 3.25221669,28.1308861 C3.25221669,29.8791281 4.14360042,31.5096699 5.57640561,32.4732431 C5.46576732,31.3393967 5.35434435,29.7865372 5.35434435,28.1308861 C5.35434435,26.4815123 5.46576732,24.9255141 5.57640561,23.7900984" id="Fill-63" fill="#2BB3EF"></path>
            <path d="M3.28470198,28.6490029 C3.44163573,30.1963697 4.28672401,31.6056349 5.57671948,32.4734785 C5.50139128,31.7060725 5.42920175,30.7385759 5.38839897,29.6847657 C4.55978874,30.0386513 3.79395201,29.5623574 3.28470198,28.6490029" id="Fill-65" fill="#007EC4"></path>
            <path d="M3.41527086,26.8456771 C3.79269654,27.5981745 4.69741965,27.810035 5.36752678,27.2835223 C5.39655953,25.9566474 5.4852271,24.7278561 5.57624868,23.7901769 C4.50360646,24.5112875 3.73384639,25.6066851 3.41527086,26.8456771" id="Fill-67" fill="#86DDFC"></path>
            <path d="M8.48752678,34.8008061 C8.04497359,34.8008061 7.6024204,34.7545107 7.17085257,34.6634891 C6.33753433,34.4892926 5.71686132,33.8034921 5.62662442,32.9584038 C5.50186208,31.8088641 5.35434435,30.0378666 5.35434435,28.1311215 C5.35434435,26.2337924 5.50186208,24.4604409 5.62583975,23.3077625 C5.71686132,22.4603202 6.33988834,21.7729504 7.17477592,21.5979692 C7.67068659,21.4936083 8.1830753,21.4347581 8.68447865,21.4708529 L9.18509733,21.4928236 L9.15763392,21.8953587 C9.1380172,22.1825475 9.12938585,22.4603202 9.12938585,22.7271076 L9.12938585,30.5737954 C9.12938585,31.8951776 9.28867361,33.131031 9.60175645,34.24683 L9.72416478,34.6831058 L9.27611891,34.7427406 C9.01717821,34.7764814 8.75588351,34.8008061 8.48752678,34.8008061" id="Fill-69" fill="#000000"></path>
            <path d="M8.35342689,22.2475965 C8.01209597,22.2562279 7.66998038,22.296246 7.33649615,22.3652968 C6.83430813,22.4712271 6.46080579,22.8839629 6.40587898,23.3916436 C6.28425532,24.52549 6.13909159,26.2682393 6.13909159,28.131043 C6.13909159,30.0024781 6.28425532,31.7436581 6.40666365,32.8743658 C6.46080579,33.3804772 6.83352346,33.7908589 7.33257281,33.8960046 C7.79003471,33.9917341 8.26554399,34.0380296 8.72928324,34.0082122 C8.47348121,32.9457707 8.34479553,31.7923076 8.34479553,30.5737169 L8.34479553,22.7270291 C8.34479553,22.5708801 8.34714954,22.4108076 8.35342689,22.2475965" id="Fill-71" fill="#FF0000"></path>
            <path d="M6.40627131,32.8743658 C6.46041346,33.3804772 6.83313113,33.7908589 7.33296514,33.8960046 C7.78964237,33.9917341 8.26593632,34.0380296 8.7288909,34.0082122 C8.51232232,33.1066278 8.39226799,32.1359925 8.35931191,31.1190617 C7.66409537,31.097091 6.80566772,31.0162701 6.22658216,30.7738075 C6.2783703,31.5867243 6.34506715,32.3070503 6.40627131,32.8743658" id="Fill-73" fill="#AD0000"></path>
            <path d="M8.35342689,22.2475965 C8.01209597,22.2562279 7.66998038,22.296246 7.33649615,22.3652968 C6.83430813,22.4712271 6.46080579,22.8839629 6.40587898,23.3916436 C6.3752769,23.6804017 6.34232081,24.0099626 6.31093406,24.3701256 C6.89001962,24.279104 7.59151351,24.2500712 8.34479553,24.2524253 L8.34479553,22.7270291 C8.34479553,22.5708801 8.34714954,22.4108076 8.35342689,22.2475965" id="Fill-75" fill="#FFABAB"></path>
            <path d="M25.9996077,42.7363184 C13.7893768,42.7363184 8.34456013,38.9856017 8.34456013,30.5739523 L8.34456013,22.7272645 C8.34456013,18.184817 10.638147,10.5648985 25.9996077,10.5648985 C41.3610684,10.5648985 43.6546552,18.184817 43.6546552,22.7272645 L43.6546552,30.5739523 C43.6546552,38.9856017 38.2098385,42.7363184 25.9996077,42.7363184" id="Fill-77" fill="#000000"></path>
            <path d="M25.9996077,11.3495673 C11.3208088,11.3495673 9.12922891,18.4782831 9.12922891,22.7272645 L9.12922891,30.5739523 C9.12922891,38.4426109 14.3323676,41.9516496 25.9996077,41.9516496 C37.6668477,41.9516496 42.8699864,38.4426109 42.8699864,30.5739523 L42.8699864,22.7272645 C42.8699864,18.4782831 40.6784065,11.3495673 25.9996077,11.3495673" id="Fill-79" fill="#2BB3EF"></path>
            <path d="M25.9996077,40.7746465 C16.4031085,40.7746465 11.0877622,38.4229941 9.36933756,33.2747823 C10.5063226,39.250035 15.7643881,41.9516496 25.9996077,41.9516496 C36.2348272,41.9516496 41.4928927,39.250035 42.6298778,33.2747823 C40.9114531,38.4229941 35.5961068,40.7746465 25.9996077,40.7746465" id="Fill-81" fill="#007EC4"></path>
            <path d="M25.9996077,13.9118247 C20.6669986,13.9118247 15.729078,14.6721687 11.6291836,15.8907593 C9.72950053,17.9850403 9.19200241,20.4284989 9.13550626,22.3682001 C12.8846537,21.0389712 19.0388109,20.3492473 25.9996077,20.3492473 C32.9509884,20.3492473 39.113777,21.0389712 42.8637091,22.3603534 C42.8056436,20.4222215 42.2673608,17.9819016 40.3700317,15.8907593 C36.2701373,14.6721687 31.3322167,13.9118247 25.9996077,13.9118247" id="Fill-83" fill="#007EC4"></path>
            <path d="M25.9996077,39.5976433 C12.516644,39.5976433 10.6985665,34.6393213 10.6985665,29.7892836 L10.6985665,25.8659397 C10.6985665,21.3917583 13.353101,16.0575799 25.9996077,16.0575799 C38.6461144,16.0575799 41.3006489,21.3917583 41.3006489,25.8659397 L41.3006489,29.7892836 C41.3006489,34.6393213 39.4825713,39.5976433 25.9996077,39.5976433" id="Fill-85" fill="#000000"></path>
            <path d="M25.9996077,16.8422487 C16.5027614,16.8422487 11.4832352,19.9628764 11.4832352,25.8659397 L11.4832352,29.7892836 C11.4832352,34.4761102 13.241678,38.8129745 25.9996077,38.8129745 C38.7575373,38.8129745 40.5159801,34.4761102 40.5159801,29.7892836 L40.5159801,25.8659397 C40.5159801,19.9628764 35.4964539,16.8422487 25.9996077,16.8422487" id="Fill-87" fill="#96F1FF"></path>
            <path d="M25.9996077,19.4351867 C30.7366531,19.4351867 34.9495398,19.815751 38.5582315,20.5698177 C36.285046,18.1177278 32.0580353,16.842641 25.9996077,16.842641 C19.9356873,16.842641 15.7071073,18.1200818 13.4354912,20.5760951 C16.8998038,19.8557692 21.2672703,19.4351867 25.9996077,19.4351867" id="Fill-89" fill="#3ACDDD"></path>
            <path d="M25.9996077,34.4321687 C24.5189377,34.4321687 23.3144711,33.2590889 23.3144711,31.8176524 C23.3144711,31.5469416 23.5341784,31.3272344 23.8048891,31.3272344 C24.0755998,31.3272344 24.2953071,31.5469416 24.2953071,31.8176524 C24.2953071,32.7184521 25.0595745,33.4513328 25.9996077,33.4513328 C26.9396409,33.4513328 27.7039083,32.7184521 27.7039083,31.8176524 C27.7039083,31.5469416 27.9236155,31.3272344 28.1943262,31.3272344 C28.465037,31.3272344 28.6847442,31.5469416 28.6847442,31.8176524 C28.6847442,33.2590889 27.4802777,34.4321687 25.9996077,34.4321687" id="Fill-103" fill="#000000"></path>
            <path d="M36.2954037,22.2277444 C36.4539067,21.6502282 36.0686344,21.0656499 35.1042764,20.7965086 C34.1399185,20.5273672 33.835467,20.6238814 33.5906504,20.7415817 C33.3050309,20.8781141 32.8624777,21.352054 33.1316191,21.7318337 C33.3999759,22.1116134 34.0481123,22.0927814 34.5526543,22.1971423 C35.2219768,22.335244 36.0913898,22.9708257 36.2954037,22.2277444" id="Fill-105" fill="#000000"></path>
            <path d="M16.1109763,22.1343688 C15.9524732,21.5568526 16.3377456,20.9722744 17.3021035,20.703133 C18.2664614,20.4339916 18.5709129,20.5305058 18.8157296,20.6482062 C19.101349,20.7847385 19.5439022,21.2586785 19.2747608,21.6384582 C19.0064041,22.0182378 18.3582677,21.9994058 17.8537257,22.1037667 C17.1844032,22.2418684 16.3149902,22.8774502 16.1109763,22.1343688" id="Fill-107" fill="#000000"></path>
            <path d="M44.353952,16.1717492 L43.6108707,15.8649437 C38.7137528,13.8467756 32.459158,12.7349 25.9997646,12.7349 C19.5403712,12.7349 13.2857764,13.8467756 8.38865852,15.8649437 L7.64557718,16.1717492 L7.8613611,15.3980658 C10.1188532,7.28929865 17.5771299,1.6255594 25.9997646,1.6255594 C34.4216146,1.6255594 41.880676,7.28929865 44.1381681,15.3980658 L44.353952,16.1717492 Z" id="Fill-109" fill="#070D28"></path>
            <path d="M25.9996077,11.9503881 C32.2306624,11.9503881 38.2812434,12.9728116 43.1493285,14.8379692 C40.7403954,7.48091477 33.8015693,2.41038512 25.9996077,2.41038512 C18.197646,2.41038512 11.25882,7.48091477 8.84988683,14.8379692 C13.7179719,12.9728116 19.7685529,11.9503881 25.9996077,11.9503881" id="Fill-111" fill="#FF0000"></path>
            <path d="M25.9996077,2.41022818 C18.197646,2.41022818 11.25882,7.48075783 8.84988683,14.8378123 C9.10490418,14.7397287 9.37561491,14.6541998 9.63690961,14.5616089 C12.4216991,8.04258068 18.68571,2.85748939 25.9996077,2.85748939 C33.3135054,2.85748939 39.5775162,8.04258068 42.3623057,14.5616089 C42.6236004,14.6541998 42.8943112,14.7397287 43.1493285,14.8378123 C40.7403954,7.48075783 33.8015693,2.41022818 25.9996077,2.41022818" id="Fill-113" fill="#FFABAB"></path>
            <path d="M39.7957326,14.5465433 L39.1271948,14.3684234 C31.0843398,12.2309857 20.9150324,12.2309857 12.8721775,14.3684234 L12.2036397,14.5465433 L12.3943142,13.8811441 C14.4980112,6.5507684 19.9655832,1.62540247 25.9996861,1.62540247 C32.033789,1.62540247 37.5013611,6.5507684 39.6050581,13.8811441 L39.7957326,14.5465433 Z" id="Fill-115" fill="#070D28"></path>
            <path d="M25.9996077,11.9503881 C30.3780595,11.9503881 34.7345405,12.4627768 38.6492531,13.4357661 C36.5141693,6.81237697 31.4985665,2.41038512 25.9996077,2.41038512 C20.5006489,2.41038512 15.485046,6.81237697 13.3499623,13.4357661 C17.2646748,12.4627768 21.6211559,11.9503881 25.9996077,11.9503881" id="Fill-117" fill="#FF0000"></path>
            <path d="M33.2210714,13.2108801 L32.8781711,13.1669386 C28.3592636,12.5941304 23.6402656,12.5941304 19.1205734,13.1669386 L18.7784578,13.2108801 L17.3283899,7.6303157 C17.2130436,7.18619318 17.3676234,6.71225323 17.7230783,6.42271045 L25.2551139,0.264629873 C25.6858971,-0.0876864084 26.3128474,-0.0884710772 26.7444153,0.263845205 L34.2772356,6.42349512 C34.6319058,6.71225323 34.7864856,7.18619318 34.6711393,7.6303157 L33.2210714,13.2108801 Z" id="Fill-119" fill="#070D28"></path>
            <path d="M25.9996077,0.783374403 C25.9117248,0.783374403 25.8230572,0.813191817 25.7516523,0.871257307 L18.2188321,7.03012255 C18.1003471,7.12663681 18.0493436,7.28435524 18.0877924,7.43265764 L19.3644485,12.3462535 C23.7311302,11.8205255 28.2680851,11.8205255 32.6347669,12.3462535 L33.911423,7.43265764 C33.9498717,7.28435524 33.8988683,7.12663681 33.7811679,7.03090722 L26.247563,0.871257307 C26.1761581,0.813191817 26.0874906,0.783374403 25.9996077,0.783374403" id="Fill-121" fill="#FF0000"></path>
            <path d="M33.7808541,7.03082876 L26.2480338,0.87117884 C26.1758443,0.81311335 26.0879614,0.783295937 25.9992938,0.783295937 C25.9114109,0.783295937 25.823528,0.81311335 25.7513385,0.87117884 L18.2185182,7.03004409 C18.1008179,7.12655835 18.0490297,7.28427677 18.0874785,7.43257917 L19.3641346,12.3461751 C19.377474,12.3446057 19.3908133,12.3438211 19.403368,12.3422517 L18.9364901,7.43257917 L25.9529983,1.69586573 C25.9804617,1.673895 26.0189105,1.673895 26.0463739,1.69586573 L33.0628821,7.43257917 L32.5960042,12.3422517 C32.6085589,12.3438211 32.6218983,12.3446057 32.6352377,12.3461751 L33.9118938,7.43257917 C33.9503425,7.28427677 33.8985544,7.12655835 33.7808541,7.03082876" id="Fill-123" fill="#FFABAB"></path>
            <path d="M29.4007545,12.8415365 L29.228912,12.8313358 C27.0263468,12.7026501 24.9728686,12.7026501 22.7703033,12.8313358 L22.5984608,12.8415365 L22.4752678,12.7222668 C21.4732458,11.7547702 20.9216237,10.4584974 20.9216237,9.07120298 C20.9216237,6.27150478 23.1995171,3.99439598 26,3.99439598 C28.7996982,3.99439598 31.0775917,6.27150478 31.0775917,9.07120298 C31.0775917,10.4584974 30.5259695,11.7547702 29.5239475,12.7222668 L29.4007545,12.8415365 Z" id="Fill-125" fill="#070D28"></path>
            <path d="M25.9996077,11.9503881 C27.0000604,11.9503881 28.0421005,11.9802055 29.0982647,12.038271 C29.8695941,11.2347702 30.2925306,10.1880221 30.2925306,9.07143838 C30.2925306,6.70409268 28.3669534,4.77851549 25.9996077,4.77851549 C23.632262,4.77851549 21.7066848,6.70409268 21.7066848,9.07143838 C21.7066848,10.1880221 22.1296212,11.2347702 22.9009507,12.038271 C23.9571148,11.9802055 24.999155,11.9503881 25.9996077,11.9503881" id="Fill-127" fill="#AFD6D8"></path>
            <path d="M29.5911151,7.17316767 C29.5911151,6.99818654 29.5699291,6.82948275 29.5495277,6.66077896 C28.7758443,5.52614791 27.4732941,4.77835856 25.9996861,4.77835856 C23.6323404,4.77835856 21.7067632,6.70472041 21.7067632,9.07128145 C21.7067632,9.27058732 21.735796,9.46440051 21.7624747,9.6582137 C22.5440048,10.761458 23.8206609,11.488846 25.2754368,11.488846 C27.6592606,11.488846 29.5911151,9.55699142 29.5911151,7.17316767" id="Fill-129" fill="#FFFFFF"></path>
            <path d="M3.24539007,27.7004168 L2.74869473,27.3245605 C0.924339822,25.9474668 0,24.44718 0,22.8652878 C0,17.0508921 12.1490267,11.9505451 26,11.9505451 C39.8501886,11.9505451 51.9992153,17.0508921 51.9992153,22.8652878 C51.9992153,24.4479647 51.0748755,25.9490361 49.2505206,27.3253451 L48.7538253,27.7004168 L48.6298476,27.0907292 C48.3073487,25.5080522 47.2919873,24.1851007 45.8427041,23.4608514 L45.7587445,23.4184793 L45.6331975,23.2442828 C45.6080881,23.208188 45.5845481,23.1720933 45.5547306,23.1375679 L45.4982345,23.0441923 C45.3907349,22.8009449 45.1882903,22.5969311 44.9293496,22.4713841 L44.8414667,22.4133186 C41.5607666,19.5367228 34.1644786,17.6786272 26,17.6786272 C17.8637694,17.6786272 10.4808209,19.5320148 7.19070469,22.4007639 L7.09575977,22.461968 C6.81798702,22.5882997 6.60455711,22.8064376 6.49470349,23.0740097 L6.43585333,23.1736626 L6.35346311,23.2678229 C6.32992304,23.2945016 6.30481364,23.3211803 6.28441225,23.3486438 L6.22870077,23.4255413 L6.14395654,23.4671287 C4.70173533,24.193732 3.69029727,25.5151143 3.36936774,27.0907292 L3.24539007,27.7004168 Z" id="Fill-131" fill="#000000"></path>
            <path d="M45.5934148,23.3916436 C45.538488,22.8839629 45.1649857,22.4712271 44.6627976,22.3652968 C44.3293134,22.296246 43.9871978,22.2562279 43.6458669,22.2475965 C43.6521443,22.4108076 43.6544983,22.5708801 43.6544983,22.7270291 L43.6544983,24.2524253 C44.408565,24.2500712 45.1100589,24.279104 45.6883597,24.3701256 C45.656973,24.0099626 45.6248016,23.6804017 45.5934148,23.3916436" id="Fill-133" fill="#FFABAB"></path>
            <path d="M8.35342689,22.2475965 C8.01209597,22.2562279 7.66998038,22.296246 7.33649615,22.3652968 C6.83430813,22.4712271 6.46080579,22.8839629 6.40587898,23.3916436 C6.3752769,23.6804017 6.34232081,24.0099626 6.31093406,24.3701256 C6.89001962,24.279104 7.59151351,24.2500712 8.34479553,24.2524253 L8.34479553,22.7270291 C8.34479553,22.5708801 8.34714954,22.4108076 8.35342689,22.2475965" id="Fill-135" fill="#FFABAB"></path>
            <path d="M46.2826679,22.8039267 C47.7146884,23.549362 48.7669292,24.8095401 49.2424385,26.3278742 C50.5520507,25.2183525 51.2150958,24.0554734 51.2150958,22.8651309 C51.2150958,18.0833593 40.4313928,12.7350569 25.9997646,12.7350569 C11.5681364,12.7350569 0.784433379,18.0833593 0.784433379,22.8651309 C0.784433379,24.0539041 1.4474785,25.2167832 2.75709069,26.3278742 C3.23259997,24.8118941 4.28405613,23.551716 5.71450732,22.8062807 C5.73333937,22.7850946 5.75217142,22.7631239 5.77178814,22.7419379 L5.7953282,22.7144744 C5.97972537,22.3072314 6.30379357,21.9768858 6.71652935,21.7736566 C10.159656,18.8076086 17.7183703,16.8938014 25.9997646,16.8938014 C34.3133303,16.8938014 41.8869534,18.8146706 45.320664,21.7901346 C45.7075057,21.9902252 46.0150958,22.303308 46.1940003,22.679949 C46.2246024,22.7207518 46.2528505,22.7599852 46.2803139,22.800788 L46.2826679,22.8039267 Z" id="Fill-137" fill="#FF0000"></path>
            <path d="M51.0590252,23.7747974 C51.0284231,24.0227527 50.8401026,24.1655624 50.4014728,24.1891025 C49.6897782,24.2275513 49.0902912,22.5044186 47.4275781,21.2214852 C47.3616659,21.1704817 47.3161551,21.1422336 47.2565203,21.0982922 C43.4720628,17.829362 35.376635,15.4808484 25.9998431,15.4808484 C16.6222665,15.4808484 8.52762336,17.829362 4.74238117,21.0990768 C4.68274634,21.1422336 4.63802022,21.1704817 4.57132337,21.2214852 C2.9093949,22.5044186 2.30912328,24.2275513 1.5974287,24.1891025 C1.15879885,24.1655624 0.971263015,24.0227527 0.940660933,23.7747974 C0.937522257,23.7928448 0.938306926,23.8116768 0.93595292,23.8297242 C1.19803229,24.6826591 1.80379659,25.5191161 2.75716916,26.3281096 C3.23267844,24.8113448 4.28334993,23.5519514 5.71458579,22.8065161 C5.73341784,22.7845454 5.75224989,22.7633593 5.77108194,22.7421733 L5.79540667,22.7139252 C5.97980383,22.3074668 6.30387204,21.9771212 6.71660782,21.7731073 C10.1597344,18.807844 17.7184488,16.8932522 25.9998431,16.8932522 C34.3126241,16.8932522 41.8870318,18.814906 45.3207424,21.79037 C45.7075841,21.9904606 46.0151743,22.3035434 46.1940788,22.6793998 C46.2246809,22.7202025 46.2529289,22.7602206 46.2803923,22.8010234 L46.2827463,22.8041621 C47.7147669,23.5495974 48.7670077,24.8089908 49.242517,26.3281096 C50.1951049,25.5206854 50.8016538,24.6842285 51.0629485,23.8305089 C51.0605945,23.8116768 51.0613792,23.7928448 51.0590252,23.7747974" id="Fill-139" fill="#AD0000"></path>
            <path d="M25.9996077,13.5733186 C39.4033198,13.5733186 50.3525879,17.8670261 51.0697752,23.8124615 C51.1639354,23.498594 51.2149389,23.1831571 51.2149389,22.8653663 C51.2149389,18.0835947 40.4312359,12.7352923 25.9996077,12.7352923 C11.5679795,12.7352923 0.784276445,18.0835947 0.784276445,22.8653663 C0.784276445,23.1855111 0.836849253,23.503302 0.932578844,23.8195235 C1.66781349,18.0890874 12.6084503,13.5733186 25.9996077,13.5733186" id="Fill-141" fill="#FFABAB"></path>
        </g>
  <g id="Hazbot-Coach-Mark-Eyes" stroke-width="1" fill-rule="evenodd" transform="translate(14.0337, 23.5266)">
            <g id="Eye-Group-R" transform="translate(16.478, 0)">
                <path d="M7.4543534,3.7271767 C7.4543534,5.78536291 5.78536291,7.4543534 3.7271767,7.4543534 C1.66899049,7.4543534 0,5.78536291 0,3.7271767 C0,1.66899049 1.66899049,0 3.7271767,0 C5.78536291,0 7.4543534,1.66899049 7.4543534,3.7271767" id="Eye-R" fill="#000000"></path>
                <path d="M4.39375283,2.67634827 C4.39375283,3.43983099 3.77464916,4.05893466 3.01116644,4.05893466 C2.24768372,4.05893466 1.62858005,3.43983099 1.62858005,2.67634827 C1.62858005,1.91286555 2.24768372,1.29376188 3.01116644,1.29376188 C3.77464916,1.29376188 4.39375283,1.91286555 4.39375283,2.67634827" id="Glint-R" fill="#FFFFFF"></path>
            </g>
            <g id="Eye-Group-L">
                <path d="M7.4543534,3.7271767 C7.4543534,5.78536291 5.78536291,7.4543534 3.7271767,7.4543534 C1.66899049,7.4543534 0,5.78536291 0,3.7271767 C0,1.66899049 1.66899049,0 3.7271767,0 C5.78536291,0 7.4543534,1.66899049 7.4543534,3.7271767" id="Eye-L" fill="#000000"></path>
                <path d="M4.39375283,2.67634827 C4.39375283,3.43983099 3.77464916,4.05893466 3.01116644,4.05893466 C2.24768372,4.05893466 1.62858005,3.43983099 1.62858005,2.67634827 C1.62858005,1.91286555 2.24768372,1.29376188 3.01116644,1.29376188 C3.77464916,1.29376188 4.39375283,1.91286555 4.39375283,2.67634827" id="Glint-L" fill="#FFFFFF"></path>
            </g>
        </g>
</svg>
